<?xml version="1.0" encoding="UTF-8" ?>
<!DOCTYPE svg PUBLIC "-//W3C//DTD SVG 1.1//EN" "http://www.w3.org/Graphics/SVG/1.1/DTD/svg11.dtd">
<svg width="1083pt" height="338pt" viewBox="0 0 1083 338" version="1.1" xmlns="http://www.w3.org/2000/svg">
<g id="#ffffffff">
<path fill="#111810" opacity="1.00" d=" M 112.46 84.57 C 126.34 76.56 143.52 75.01 158.80 79.61 C 169.83 83.21 179.95 89.82 187.21 98.93 C 195.84 109.36 200.55 122.85 200.64 136.36 C 198.82 136.37 197.01 136.39 195.20 136.40 C 194.96 126.21 192.30 115.93 186.64 107.37 C 178.99 95.29 166.30 86.49 152.27 83.66 C 139.56 80.94 125.90 83.23 114.64 89.68 C 106.89 94.04 100.58 100.52 95.68 107.87 C 130.60 134.46 165.84 160.62 200.76 187.21 C 200.73 197.14 200.75 207.06 200.75 216.99 C 200.67 222.65 200.60 228.36 199.24 233.89 C 196.07 249.08 186.46 262.68 173.43 271.05 C 166.08 275.73 157.71 278.88 149.05 279.92 C 143.32 280.02 137.55 280.24 131.83 279.71 C 119.57 277.62 107.83 271.83 99.21 262.79 C 88.19 251.99 82.03 236.59 82.05 221.20 C 83.87 221.23 85.70 221.27 87.52 221.30 C 87.41 235.99 93.90 250.40 104.50 260.48 C 113.37 268.61 124.90 274.00 136.97 274.80 C 154.62 276.45 172.73 268.44 183.55 254.45 C 190.84 245.45 195.01 233.87 194.94 222.28 C 192.50 220.69 190.20 218.91 187.89 217.16 C 152.60 190.69 117.30 164.23 82.02 137.74 C 81.35 116.18 93.53 94.91 112.46 84.57 M 92.57 113.04 C 89.90 120.02 87.62 127.26 87.49 134.83 C 123.23 161.87 159.19 188.64 195.03 215.58 C 195.28 206.99 195.00 198.39 195.18 189.80 C 162.13 164.91 129.11 139.98 96.07 115.08 C 95.00 114.25 93.93 113.35 92.57 113.04 Z" />
<path fill="#111810" opacity="1.00" d=" M 248.00 123.76 C 249.58 123.74 251.17 123.76 252.76 123.81 C 252.60 161.20 252.72 198.59 252.70 235.98 C 251.13 235.98 249.57 235.99 248.01 236.00 C 248.01 198.59 248.02 161.17 248.00 123.76 Z" />
<path fill="#111810" opacity="1.00" d=" M 257.34 235.96 C 257.41 198.53 257.32 161.11 257.38 123.68 C 258.93 123.72 260.49 123.75 262.05 123.79 C 262.04 161.19 262.05 198.60 262.03 236.01 C 260.47 235.99 258.90 235.98 257.34 235.96 Z" />
<path fill="#111810" opacity="1.00" d=" M 266.63 123.67 C 268.23 123.72 269.84 123.73 271.45 123.70 C 271.34 161.13 271.44 198.56 271.39 235.99 C 269.83 235.99 268.28 235.99 266.72 236.00 C 266.65 198.56 266.83 161.11 266.63 123.67 Z" />
<path fill="#111810" opacity="1.00" d=" M 302.17 156.98 C 307.75 151.79 316.14 151.04 323.27 152.75 C 329.38 154.13 334.44 158.10 338.89 162.33 C 336.24 165.05 333.55 167.73 330.83 170.39 C 326.86 164.90 319.66 159.60 312.67 162.68 C 308.64 163.89 308.59 170.05 312.16 171.87 C 318.82 175.93 327.34 176.25 333.21 181.77 C 339.11 186.59 339.98 196.20 335.12 202.04 C 331.64 206.34 326.03 208.09 320.71 208.61 C 310.92 210.08 301.18 205.85 294.87 198.39 C 297.63 195.63 300.40 192.87 303.16 190.10 C 306.98 196.95 316.14 201.20 323.50 197.47 C 327.17 195.75 327.16 190.27 324.03 188.01 C 319.43 184.65 313.57 184.05 308.53 181.59 C 304.41 179.67 300.43 176.68 298.62 172.38 C 296.56 167.17 297.83 160.66 302.17 156.98 Z" />
<path fill="#111810" opacity="1.00" d=" M 339.70 152.59 C 354.41 152.08 369.16 152.58 383.89 152.33 C 383.87 155.60 383.87 158.87 383.87 162.14 C 378.54 162.35 373.21 162.21 367.88 162.22 C 367.57 177.48 367.83 192.75 367.75 208.02 C 363.79 208.19 359.84 208.08 355.89 208.11 C 355.91 192.80 355.85 177.50 355.92 162.19 C 350.53 162.28 345.14 162.22 339.75 162.25 C 339.76 159.03 339.79 155.81 339.70 152.59 Z" />
<path fill="#111810" opacity="1.00" d=" M 400.62 152.42 C 403.18 152.36 405.75 152.36 408.32 152.40 C 415.82 171.01 423.53 189.54 431.13 208.11 C 426.83 208.06 422.54 208.27 418.26 207.99 C 416.83 204.45 415.42 200.92 413.81 197.47 C 407.49 197.51 401.16 197.49 394.84 197.49 C 393.23 201.02 392.19 204.82 390.17 208.16 C 386.03 208.06 381.89 208.14 377.76 208.11 C 385.21 189.48 392.99 170.98 400.62 152.42 M 404.27 171.87 C 402.51 177.16 400.35 182.31 398.69 187.64 C 402.45 187.61 406.20 187.64 409.96 187.59 C 408.09 182.36 406.75 176.82 404.27 171.87 Z" />
<path fill="#111810" opacity="1.00" d=" M 444.57 154.39 C 455.77 149.28 470.10 152.27 478.19 161.60 C 475.58 164.28 473.03 167.04 470.18 169.47 C 466.30 163.06 457.80 160.01 450.78 162.77 C 442.56 165.94 438.29 175.79 440.11 184.15 C 441.21 191.13 446.65 197.65 453.86 198.65 C 460.34 200.17 466.27 196.06 470.30 191.39 C 473.10 193.74 475.51 196.49 478.15 199.00 C 472.48 205.59 463.57 209.15 454.93 208.69 C 445.60 208.45 436.61 203.06 431.87 195.04 C 427.41 187.77 426.65 178.44 429.60 170.46 C 431.94 163.27 437.69 157.40 444.57 154.39 Z" />
<path fill="#111810" opacity="1.00" d=" M 486.17 152.39 C 490.10 152.36 494.03 152.39 497.96 152.35 C 498.06 159.44 497.98 166.54 498.00 173.63 C 506.14 166.89 514.07 159.90 522.14 153.07 C 523.14 152.02 524.70 152.46 525.98 152.35 C 530.65 152.39 535.31 152.40 539.98 152.32 C 530.93 160.45 521.37 168.01 512.22 176.03 C 521.22 186.68 530.24 197.32 539.07 208.10 C 533.78 208.15 528.50 208.15 523.21 208.10 C 516.49 199.89 510.01 191.49 503.14 183.41 C 501.58 185.08 499.38 186.14 498.05 187.96 C 497.90 194.68 498.07 201.40 497.99 208.12 C 494.03 208.13 490.08 208.13 486.13 208.13 C 486.15 189.55 486.07 170.97 486.17 152.39 Z" />
<path fill="#111810" opacity="1.00" d=" M 563.53 152.40 C 567.81 152.35 572.11 152.36 576.40 152.38 C 582.67 165.06 589.43 177.50 595.61 190.23 C 602.21 177.65 608.32 164.80 615.13 152.32 C 617.51 152.36 619.90 152.37 622.29 152.38 C 628.98 152.43 635.67 152.33 642.36 152.41 C 647.10 159.98 652.15 167.35 656.99 174.86 C 661.96 167.44 666.93 160.01 671.69 152.46 C 676.48 152.29 681.27 152.47 686.06 152.29 C 678.58 163.72 670.49 174.75 663.14 186.24 C 662.77 193.51 663.12 200.81 662.99 208.10 C 658.99 208.12 655.00 208.12 651.01 208.10 C 650.88 200.77 651.22 193.42 650.87 186.11 C 643.48 174.78 635.77 163.63 627.99 152.56 C 627.69 170.99 627.99 189.44 627.85 207.87 L 626.52 208.19 C 623.01 208.17 619.50 208.11 616.00 208.13 C 615.96 197.31 615.99 186.48 615.98 175.66 C 610.22 186.42 604.98 197.46 599.16 208.19 C 596.79 208.14 594.43 208.13 592.07 208.13 C 586.62 197.21 580.93 186.41 575.38 175.54 C 575.38 186.40 575.40 197.25 575.37 208.11 C 571.38 208.11 567.38 208.28 563.40 207.98 C 563.64 189.45 563.39 170.93 563.53 152.40 Z" />
<path fill="#111810" opacity="1.00" d=" M 705.02 152.34 C 709.24 152.41 713.46 152.35 717.68 152.40 C 724.00 164.96 730.44 177.47 736.89 189.97 C 743.59 177.55 749.75 164.84 756.37 152.38 C 760.65 152.47 764.94 152.16 769.22 152.55 C 769.00 171.06 769.20 189.59 769.11 208.11 C 765.16 208.13 761.20 208.12 757.25 208.12 C 757.19 197.48 757.36 186.84 757.16 176.21 C 751.37 186.63 746.17 197.40 740.73 208.02 C 738.20 208.12 735.66 208.31 733.17 207.89 C 727.79 197.26 722.51 186.54 716.81 176.08 C 716.66 186.73 716.78 197.38 716.75 208.02 C 712.79 208.20 708.83 208.09 704.88 208.12 C 704.98 189.53 704.68 170.93 705.02 152.34 Z" />
<path fill="#111810" opacity="1.00" d=" M 795.50 152.73 C 803.05 150.87 811.27 152.25 817.91 156.27 C 825.15 161.06 830.36 169.17 830.81 177.93 C 831.49 185.94 828.74 194.27 823.07 200.02 C 817.15 206.15 808.35 209.47 799.85 208.61 C 790.18 207.96 781.09 201.81 776.85 193.09 C 774.04 187.87 773.40 181.67 774.19 175.86 C 775.75 164.79 784.54 155.12 795.50 152.73 M 797.34 162.57 C 791.51 164.62 787.38 170.09 786.23 176.06 C 784.38 184.07 788.03 193.60 795.67 197.22 C 802.46 201.02 811.67 198.02 815.66 191.55 C 820.52 184.43 820.21 174.06 814.47 167.53 C 810.60 162.47 803.31 160.56 797.34 162.57 Z" />
<path fill="#111810" opacity="1.00" d=" M 838.15 152.39 C 842.36 152.35 846.56 152.40 850.78 152.31 C 858.89 164.65 867.24 176.84 875.52 189.08 C 875.50 176.87 875.50 164.67 875.51 152.46 C 879.45 152.33 883.41 152.37 887.37 152.40 C 887.38 165.56 887.36 178.72 887.38 191.88 C 887.40 197.25 887.33 202.63 887.43 208.01 C 883.21 208.24 878.99 208.08 874.78 208.18 C 866.50 196.01 858.35 183.74 850.05 171.59 C 849.95 183.77 850.05 195.94 849.99 208.12 C 846.03 208.14 842.08 208.14 838.13 208.12 C 838.14 189.54 838.09 170.97 838.15 152.39 Z" />
<path fill="#111810" opacity="1.00" d=" M 897.03 152.37 C 910.02 152.37 923.01 152.42 936.01 152.35 C 936.01 155.64 936.01 158.94 935.98 162.24 C 926.99 162.26 918.00 162.24 909.01 162.25 C 908.98 166.24 908.98 170.24 909.01 174.24 C 916.38 174.27 923.74 174.24 931.12 174.25 C 931.13 177.58 931.12 180.90 931.10 184.23 C 923.73 184.27 916.37 184.23 909.01 184.25 C 908.98 188.91 908.99 193.58 909.00 198.24 C 918.44 198.27 927.87 198.25 937.31 198.25 C 937.38 201.53 937.39 204.81 937.35 208.09 C 923.92 208.15 910.49 208.09 897.06 208.11 C 896.88 204.12 897.02 200.12 897.00 196.12 C 897.02 181.54 896.96 166.95 897.03 152.37 Z" />
<path fill="#111810" opacity="1.00" d=" M 936.66 152.40 C 941.30 152.36 945.96 152.37 950.61 152.39 C 955.44 159.97 960.72 167.27 965.28 175.02 C 970.34 167.52 975.15 159.85 980.29 152.41 C 984.90 152.34 989.50 152.38 994.12 152.37 C 987.13 164.04 978.60 174.84 971.42 186.42 C 971.27 193.64 971.44 200.87 971.36 208.09 C 967.42 207.86 963.10 208.67 959.41 207.74 C 959.30 200.51 959.44 193.28 959.36 186.06 C 951.90 174.77 943.86 163.85 936.66 152.40 Z" />
</g>
</svg>

