<?xml version="1.0" encoding="UTF-8" ?>
<!DOCTYPE svg PUBLIC "-//W3C//DTD SVG 1.1//EN" "http://www.w3.org/Graphics/SVG/1.1/DTD/svg11.dtd">
<svg width="265pt" height="311pt" viewBox="0 0 265 311" version="1.1" xmlns="http://www.w3.org/2000/svg">
<g id="#17b978ff">
</g>
<g id="#ffffffff">
<path fill="#ffffff" opacity="1.00" d=" M 82.67 74.70 C 94.29 61.82 111.66 54.38 129.02 55.10 C 141.46 55.37 153.70 59.86 163.53 67.45 C 178.33 78.44 187.27 96.72 187.16 115.13 C 185.33 115.12 183.51 115.11 181.69 115.10 C 181.61 100.74 175.70 86.60 165.53 76.48 C 154.73 65.69 139.26 59.66 123.99 60.74 C 106.59 61.64 89.91 71.54 80.88 86.46 C 116.40 112.99 151.65 139.88 187.18 166.39 C 187.31 178.25 187.25 190.12 187.22 201.98 C 187.08 216.98 180.94 231.75 170.64 242.61 C 159.37 254.28 143.32 261.55 126.99 261.02 C 112.59 261.46 98.37 255.69 87.56 246.33 C 74.63 235.14 66.89 218.21 67.04 201.08 C 68.88 201.10 70.71 201.13 72.55 201.15 C 72.62 215.12 78.07 229.11 87.97 239.04 C 97.29 248.79 110.41 254.90 123.90 255.54 C 139.70 256.57 155.78 250.17 166.63 238.66 C 175.91 228.99 181.46 215.76 181.57 202.33 C 143.23 173.92 105.17 145.12 66.97 116.51 C 66.71 101.25 72.35 85.96 82.67 74.70 M 72.58 113.83 C 109.02 140.90 145.16 168.37 181.62 195.42 C 181.62 186.73 181.64 178.04 181.61 169.36 C 147.19 143.14 112.49 117.30 78.03 91.14 C 74.93 98.33 72.65 105.93 72.58 113.83 Z" />
</g>
</svg>
