<?xml version="1.0" encoding="UTF-8" ?>
<!DOCTYPE svg PUBLIC "-//W3C//DTD SVG 1.1//EN" "http://www.w3.org/Graphics/SVG/1.1/DTD/svg11.dtd">
<svg width="1115pt" height="337pt" viewBox="0 0 1115 337" version="1.1" xmlns="http://www.w3.org/2000/svg">
<g id="#ffffffff">
<path fill="#111810" opacity="1.00" d=" M 587.39 87.09 C 592.99 81.82 600.20 78.17 607.89 77.36 C 619.50 75.89 631.66 80.97 638.85 90.18 C 643.71 96.23 646.18 103.95 646.39 111.66 C 645.58 111.62 643.95 111.54 643.14 111.50 C 642.98 103.50 639.94 95.43 634.18 89.77 C 626.89 81.95 615.31 78.72 604.95 80.97 C 596.72 82.75 589.62 88.17 585.00 95.11 C 605.56 110.31 625.93 125.77 646.35 141.15 C 646.29 148.75 646.57 156.36 646.19 163.95 C 645.65 171.20 642.68 178.22 637.98 183.75 C 632.19 190.46 623.84 194.77 615.01 195.56 C 604.70 196.55 593.95 192.63 586.88 185.01 C 580.67 178.76 577.30 170.00 577.21 161.23 C 577.97 161.26 579.49 161.30 580.25 161.32 C 580.57 173.88 588.62 186.10 600.56 190.42 C 610.32 194.30 622.03 192.69 630.41 186.36 C 638.12 180.78 642.78 171.53 643.21 162.06 C 623.10 146.67 602.71 131.64 582.49 116.38 C 580.75 114.90 578.36 113.93 577.21 111.91 C 577.10 102.68 580.93 93.65 587.39 87.09 M 580.36 110.86 C 601.37 126.57 622.48 142.18 643.28 158.16 C 643.14 153.11 643.39 148.05 643.18 143.01 C 623.68 127.61 603.37 113.16 583.76 97.89 C 581.61 101.91 580.63 106.34 580.36 110.86 Z" />
<path fill="#111810" opacity="1.00" d=" M 84.77 108.77 C 91.46 104.28 100.03 103.82 107.69 105.69 C 114.36 107.71 120.22 111.73 125.00 116.74 C 121.91 119.78 118.87 122.87 115.78 125.92 C 112.76 122.71 109.82 119.15 105.60 117.48 C 101.92 115.57 97.28 115.44 93.69 117.64 C 90.79 119.41 90.24 123.95 92.60 126.40 C 95.52 129.26 99.59 130.44 103.37 131.72 C 109.25 133.63 115.36 135.83 119.77 140.36 C 124.64 145.19 125.57 153.13 122.87 159.28 C 120.41 164.74 114.86 168.13 109.19 169.42 C 102.58 170.88 95.54 171.01 89.04 168.95 C 83.06 167.08 78.36 162.70 73.90 158.50 C 77.10 155.30 80.31 152.09 83.51 148.89 C 86.95 154.19 92.49 158.50 98.94 159.04 C 102.30 159.16 105.94 158.65 108.64 156.51 C 111.64 153.80 110.87 148.59 107.73 146.31 C 101.98 142.27 94.68 141.78 88.61 138.38 C 83.62 135.84 78.86 131.69 77.75 125.95 C 76.09 119.45 79.05 112.25 84.77 108.77 Z" />
<path fill="#111810" opacity="1.00" d=" M 126.03 105.24 C 143.14 105.37 160.26 105.05 177.37 105.39 C 177.16 109.12 177.28 112.86 177.23 116.60 C 171.00 116.66 164.78 116.58 158.56 116.64 C 158.37 134.36 158.61 152.07 158.43 169.79 C 153.83 169.61 149.22 169.97 144.62 169.58 C 144.87 151.88 144.81 134.16 144.65 116.46 C 138.46 116.81 132.25 116.51 126.05 116.65 C 125.97 112.85 125.99 109.04 126.03 105.24 Z" />
<path fill="#111810" opacity="1.00" d=" M 196.46 105.28 C 199.45 105.24 202.45 105.23 205.44 105.25 C 214.25 126.77 223.12 148.27 231.92 169.79 C 226.98 169.71 222.03 169.78 217.08 169.74 C 215.36 165.58 213.64 161.42 211.74 157.33 C 204.41 157.52 197.07 157.16 189.74 157.51 C 188.25 161.66 186.46 165.68 184.82 169.77 C 179.87 169.71 174.92 169.80 169.98 169.70 C 178.78 148.22 187.72 126.79 196.46 105.28 M 194.22 145.82 C 198.67 145.93 203.11 145.84 207.55 145.89 C 205.25 139.89 203.46 133.70 200.93 127.78 C 198.26 133.63 196.83 139.95 194.22 145.82 Z" />
<path fill="#111810" opacity="1.00" d=" M 252.09 105.90 C 264.27 102.33 278.03 106.50 286.53 115.84 C 283.45 118.98 280.35 122.10 277.20 125.16 C 274.28 120.01 268.73 116.63 262.86 116.17 C 255.60 115.28 248.24 119.55 244.88 125.97 C 239.49 135.03 241.41 147.71 249.38 154.66 C 254.30 158.97 261.73 160.35 267.79 157.77 C 271.63 156.34 274.53 153.29 277.25 150.34 C 280.52 153.13 283.36 156.38 286.51 159.31 C 279.52 166.77 269.38 171.19 259.11 170.37 C 250.28 169.96 241.67 165.76 235.95 159.03 C 228.14 150.15 226.03 136.91 230.14 125.90 C 233.61 116.19 242.06 108.40 252.09 105.90 Z" />
<path fill="#111810" opacity="1.00" d=" M 295.75 105.17 C 300.27 105.32 304.80 105.23 309.34 105.24 C 309.44 113.43 309.37 121.63 309.37 129.83 C 317.61 122.77 325.89 115.77 334.13 108.70 C 335.49 107.54 336.87 106.38 338.25 105.23 C 344.87 105.28 351.49 105.23 358.11 105.26 C 347.27 114.25 336.60 123.44 325.80 132.49 C 336.26 144.90 346.59 157.41 357.11 169.77 C 350.89 169.67 344.66 169.89 338.44 169.63 C 330.90 160.05 323.09 150.66 315.45 141.15 C 313.35 142.76 311.31 144.44 309.34 146.20 C 309.36 154.05 309.43 161.90 309.30 169.76 C 307.26 169.74 305.22 169.75 303.19 169.75 C 300.72 169.72 298.25 169.75 295.79 169.85 C 295.48 148.30 295.55 126.72 295.75 105.17 Z" />
<path fill="#111810" opacity="1.00" d=" M 385.28 105.29 C 390.17 105.19 395.07 105.34 399.96 105.16 C 407.52 119.69 414.89 134.31 422.46 148.83 C 429.99 134.29 437.20 119.57 445.02 105.19 C 447.17 105.25 449.33 105.22 451.49 105.18 C 459.82 105.41 468.16 105.12 476.50 105.31 C 482.15 113.95 487.91 122.53 493.32 131.32 C 499.19 122.76 504.85 114.03 510.49 105.31 C 516.02 105.20 521.55 105.26 527.08 105.26 C 518.61 117.73 510.09 130.17 501.58 142.62 C 500.86 143.62 500.34 144.77 500.47 146.03 C 500.50 153.94 500.52 161.85 500.47 169.76 C 495.89 169.76 491.31 169.71 486.74 169.80 C 486.49 161.31 486.69 152.83 486.63 144.34 C 477.71 131.34 468.95 118.20 459.85 105.32 C 459.62 116.86 459.81 128.40 459.75 139.94 C 459.73 149.87 459.79 159.80 459.72 169.72 C 455.10 169.77 450.48 169.75 445.87 169.75 C 445.75 157.30 446.10 144.85 445.69 132.41 C 439.51 144.94 432.95 157.28 426.64 169.74 C 423.84 169.77 421.03 169.75 418.23 169.70 C 411.93 157.14 405.43 144.69 399.04 132.18 C 398.93 144.71 399.04 157.23 398.99 169.75 C 394.40 169.75 389.82 169.74 385.23 169.77 C 385.29 148.28 385.20 126.78 385.28 105.29 Z" />
<path fill="#111810" opacity="1.00" d=" M 697.29 105.29 C 702.29 105.32 707.32 105.04 712.32 105.42 C 719.54 119.97 726.95 134.45 734.61 148.77 C 741.98 134.17 749.30 119.52 757.10 105.16 C 761.99 105.34 766.88 105.23 771.77 105.23 C 771.69 126.72 771.81 148.22 771.71 169.72 C 767.15 169.79 762.58 169.73 758.02 169.76 C 757.93 157.37 758.09 144.97 757.94 132.58 C 751.14 144.76 745.25 157.46 738.62 169.74 C 735.86 169.76 733.10 169.76 730.35 169.73 C 723.92 157.33 717.75 144.75 711.07 132.51 C 710.89 144.92 711.07 157.34 710.98 169.75 C 706.39 169.75 701.81 169.73 697.23 169.77 C 697.31 148.28 697.19 126.78 697.29 105.29 Z" />
<path fill="#111810" opacity="1.00" d=" M 802.44 105.52 C 811.12 103.58 820.69 104.88 828.20 109.78 C 835.03 114.08 840.25 121.04 842.16 128.91 C 845.34 140.45 841.69 153.69 832.81 161.79 C 823.45 170.60 808.84 172.83 797.11 167.80 C 785.98 163.26 777.98 152.06 777.31 140.04 C 775.65 124.37 786.99 108.71 802.44 105.52 M 805.51 116.73 C 799.09 118.47 794.15 123.85 792.14 130.08 C 788.68 139.69 792.60 151.52 801.51 156.70 C 808.61 160.94 818.52 159.17 823.85 152.88 C 831.45 144.28 831.50 129.92 823.33 121.68 C 818.97 116.79 811.75 114.90 805.51 116.73 Z" />
<path fill="#111810" opacity="1.00" d=" M 851.71 105.03 C 856.51 105.50 861.35 105.20 866.17 105.18 C 875.85 119.18 885.06 133.51 894.87 147.42 C 894.97 133.37 894.77 119.31 894.96 105.26 C 899.56 105.25 904.16 105.26 908.77 105.23 C 908.72 126.70 908.77 148.16 908.73 169.63 C 908.29 169.66 907.41 169.72 906.96 169.75 C 902.68 169.81 898.41 169.70 894.14 169.78 C 884.50 155.86 875.17 141.72 865.62 127.74 C 865.36 141.74 865.58 155.74 865.50 169.74 C 860.89 169.77 856.28 169.74 851.68 169.76 C 851.60 148.19 851.52 126.60 851.71 105.03 Z" />
<path fill="#111810" opacity="1.00" d=" M 919.98 105.25 C 935.00 105.26 950.02 105.24 965.04 105.26 C 964.97 109.05 965.03 112.85 964.96 116.65 C 954.52 116.60 944.08 116.61 933.64 116.64 C 933.58 121.20 933.66 125.76 933.58 130.32 C 942.12 130.76 950.69 130.36 959.24 130.52 C 959.25 134.34 959.25 138.16 959.24 141.99 C 950.70 142.01 942.16 141.99 933.63 142.00 C 933.61 147.45 933.60 152.91 933.64 158.36 C 944.60 158.41 955.57 158.35 966.54 158.39 C 966.45 162.18 966.53 165.98 966.45 169.77 C 950.94 169.72 935.44 169.75 919.94 169.76 C 919.88 148.26 919.79 126.75 919.98 105.25 Z" />
<path fill="#111810" opacity="1.00" d=" M 965.52 105.24 C 970.99 105.23 976.47 105.31 981.95 105.19 C 987.49 113.70 993.08 122.19 998.62 130.70 C 998.83 130.69 999.24 130.65 999.45 130.64 C 1005.06 122.20 1010.51 113.66 1016.13 105.23 C 1021.66 105.26 1027.19 105.26 1032.73 105.23 C 1024.32 117.33 1016.08 129.55 1007.74 141.71 C 1007.16 142.74 1006.03 143.61 1006.04 144.88 C 1005.91 153.17 1006.07 161.47 1005.97 169.76 C 1001.36 169.73 996.76 169.76 992.16 169.74 C 992.08 161.81 992.14 153.89 992.14 145.97 C 992.24 144.80 991.93 143.77 991.21 142.88 C 982.61 130.36 974.03 117.82 965.52 105.24 Z" />
<path fill="#111810" opacity="1.00" d=" M 334.39 232.51 C 338.18 232.18 342.43 231.96 345.67 234.35 C 353.82 240.34 352.94 255.16 343.58 259.58 C 339.14 260.79 333.99 260.83 330.20 257.89 C 322.09 251.32 323.87 235.63 334.39 232.51 M 334.33 236.41 C 327.11 239.96 327.17 252.03 333.87 256.15 C 337.15 257.43 341.39 257.48 344.07 254.89 C 347.95 251.37 348.12 245.34 346.33 240.73 C 344.50 236.24 338.62 234.12 334.33 236.41 Z" />
<path fill="#111810" opacity="1.00" d=" M 459.48 232.57 C 464.04 231.65 469.54 232.62 472.50 236.53 C 476.94 242.33 476.81 251.37 471.86 256.84 C 467.77 260.82 461.18 261.32 456.17 258.88 C 446.23 253.25 447.70 234.91 459.48 232.57 M 458.43 236.55 C 451.10 240.61 451.71 254.15 460.03 256.75 C 463.21 257.57 467.14 256.96 469.27 254.23 C 472.48 250.20 472.73 244.11 470.23 239.68 C 468.13 235.52 462.33 234.52 458.43 236.55 Z" />
<path fill="#111810" opacity="1.00" d=" M 602.42 232.59 C 606.84 231.55 611.76 232.74 615.02 235.97 C 620.03 241.98 619.74 251.75 614.23 257.35 C 609.88 261.00 603.26 261.26 598.39 258.51 C 589.17 252.49 590.91 234.82 602.42 232.59 M 601.41 236.47 C 594.39 240.39 594.57 252.50 601.65 256.28 C 605.73 258.20 611.45 256.66 613.36 252.37 C 616.00 247.15 615.08 239.45 609.63 236.40 C 607.04 235.31 603.94 235.12 601.41 236.47 Z" />
<path fill="#111810" opacity="1.00" d=" M 793.37 232.48 C 798.93 231.03 806.83 233.95 806.19 240.77 C 805.45 240.77 803.98 240.76 803.24 240.76 C 802.30 235.54 795.67 233.86 791.65 236.64 C 790.25 238.11 789.50 241.02 791.35 242.44 C 795.34 244.70 800.48 244.08 804.33 246.69 C 808.89 249.78 807.40 257.93 802.14 259.41 C 797.87 260.82 792.62 261.03 788.91 258.13 C 786.82 256.37 785.59 253.74 785.68 251.00 C 786.53 251.01 788.23 251.01 789.08 251.01 C 789.24 257.10 796.88 258.68 801.39 256.36 C 804.10 255.08 804.39 250.74 801.62 249.38 C 797.25 247.05 791.42 247.90 787.79 244.14 C 784.96 239.62 788.02 233.03 793.37 232.48 Z" />
<path fill="#111810" opacity="1.00" d=" M 299.19 232.81 C 300.72 232.82 302.25 232.92 303.78 233.10 C 306.14 237.37 308.52 241.67 311.41 245.62 C 313.85 241.31 316.34 237.04 318.95 232.83 C 320.33 232.86 321.72 232.89 323.11 232.90 C 319.90 238.34 316.23 243.52 313.08 248.99 C 312.86 252.58 313.09 256.18 312.97 259.77 C 311.76 259.76 310.56 259.75 309.35 259.75 C 309.38 256.10 309.37 252.46 309.38 248.82 C 305.91 243.53 302.69 238.09 299.19 232.81 Z" />
<path fill="#111810" opacity="1.00" d=" M 355.63 232.84 C 356.53 232.86 358.33 232.91 359.23 232.93 C 359.54 239.65 358.61 246.47 359.82 253.12 C 361.66 259.00 372.03 258.45 372.82 252.12 C 373.53 245.75 372.92 239.28 373.13 232.87 C 374.33 232.89 375.54 232.90 376.76 232.92 C 376.60 239.59 377.04 246.29 376.51 252.94 C 375.10 259.78 366.47 262.08 360.76 259.28 C 357.62 257.79 355.45 254.39 355.67 250.89 C 355.57 244.87 355.66 238.86 355.63 232.84 Z" />
<path fill="#111810" opacity="1.00" d=" M 383.01 232.89 C 388.54 233.12 394.19 232.28 399.62 233.55 C 405.34 235.10 405.51 243.69 400.75 246.50 C 405.74 249.31 402.15 255.92 405.24 259.85 C 403.69 259.77 402.14 259.71 400.60 259.66 C 399.99 256.41 400.75 252.73 399.29 249.75 C 395.78 246.93 390.76 248.72 386.63 248.29 C 386.61 252.11 386.61 255.93 386.64 259.75 C 385.73 259.75 383.91 259.75 383.00 259.75 C 383.00 250.79 382.99 241.84 383.01 232.89 M 386.63 236.00 C 386.61 239.05 386.61 242.10 386.62 245.15 C 390.39 245.04 394.18 245.35 397.93 244.79 C 401.04 243.24 401.35 237.53 397.84 236.33 C 394.14 235.68 390.36 236.12 386.63 236.00 Z" />
<path fill="#111810" opacity="1.00" d=" M 419.76 232.90 C 421.51 232.88 423.27 232.88 425.03 232.89 C 427.42 240.35 430.04 247.74 432.41 255.20 C 435.66 248.13 437.35 240.41 440.24 233.17 C 441.83 232.48 443.67 233.01 445.36 232.91 C 445.38 241.85 445.39 250.79 445.36 259.73 C 444.48 259.73 442.73 259.74 441.85 259.74 C 441.80 252.23 442.03 244.72 441.86 237.22 C 439.23 244.60 437.08 252.17 434.22 259.46 C 433.40 260.02 431.60 259.98 430.76 259.48 C 428.07 252.25 425.87 244.84 423.29 237.58 C 423.15 244.99 423.37 252.40 423.17 259.80 C 421.98 259.74 420.81 259.68 419.63 259.61 C 419.91 250.71 419.67 241.80 419.76 232.90 Z" />
<path fill="#111810" opacity="1.00" d=" M 480.01 232.88 C 481.38 232.88 482.76 232.87 484.14 232.86 C 488.87 239.92 493.09 247.31 497.71 254.45 C 497.79 247.26 497.70 240.07 497.76 232.88 C 498.63 232.88 500.37 232.88 501.24 232.88 C 501.20 241.84 501.39 250.81 501.15 259.77 C 499.81 259.75 498.48 259.74 497.15 259.74 C 492.71 252.38 488.07 245.15 483.45 237.91 C 483.59 245.15 483.39 252.39 483.57 259.63 C 482.38 259.69 481.20 259.75 480.03 259.82 C 479.96 250.84 480.00 241.86 480.01 232.88 Z" />
<path fill="#111810" opacity="1.00" d=" M 507.32 232.81 C 513.83 232.98 520.35 232.84 526.87 232.88 C 526.87 233.67 526.87 235.24 526.88 236.03 C 521.59 236.20 516.30 236.07 511.01 236.11 C 510.99 238.86 510.99 241.61 511.00 244.37 C 515.86 244.40 520.73 244.36 525.59 244.40 C 525.61 245.43 525.63 246.47 525.66 247.51 C 520.77 247.48 515.88 247.48 511.00 247.50 C 510.99 250.50 510.99 253.50 511.00 256.50 C 516.32 256.52 521.65 256.51 526.97 256.50 C 527.05 257.58 527.13 258.66 527.22 259.74 C 520.60 259.74 513.98 259.75 507.36 259.75 C 507.36 250.77 507.43 241.79 507.32 232.81 Z" />
<path fill="#111810" opacity="1.00" d=" M 529.50 232.82 C 531.00 233.10 533.16 232.22 534.24 233.70 C 536.76 237.64 538.94 241.79 541.46 245.74 C 544.03 241.45 546.62 237.19 549.15 232.87 C 550.56 232.89 551.98 232.90 553.41 232.91 C 550.11 238.33 546.44 243.53 543.37 249.07 C 543.04 252.60 543.35 256.16 543.21 259.71 C 542.32 259.72 540.54 259.73 539.65 259.74 C 539.04 255.20 541.10 249.86 537.90 246.00 C 534.96 241.70 532.40 237.15 529.50 232.82 Z" />
<path fill="#111810" opacity="1.00" d=" M 566.57 232.85 C 568.01 232.86 569.45 232.87 570.90 232.89 C 573.28 237.19 576.04 241.28 578.33 245.64 C 581.34 241.64 583.62 237.13 586.23 232.86 C 587.63 232.88 589.03 232.90 590.43 232.92 C 587.25 238.17 583.82 243.28 580.65 248.53 C 579.97 252.18 580.59 256.01 580.36 259.72 C 579.44 259.73 577.62 259.74 576.71 259.75 C 576.70 256.19 576.89 252.62 576.68 249.06 C 573.60 243.50 569.98 238.23 566.57 232.85 Z" />
<path fill="#111810" opacity="1.00" d=" M 623.01 232.82 C 624.22 232.88 625.44 232.96 626.67 233.04 C 626.75 239.66 626.25 246.33 626.98 252.91 C 628.87 259.10 639.43 258.43 640.27 251.93 C 640.75 245.64 640.43 239.31 640.44 233.00 C 641.66 232.94 642.89 232.89 644.12 232.85 C 644.09 238.90 644.21 244.96 644.08 251.01 C 643.99 254.78 641.49 258.38 637.96 259.71 C 634.39 260.85 630.41 260.54 627.06 258.89 C 624.28 256.95 622.81 253.42 623.00 250.07 C 622.98 244.32 623.00 238.57 623.01 232.82 Z" />
<path fill="#111810" opacity="1.00" d=" M 650.25 232.88 C 655.70 233.04 661.25 232.39 666.65 233.42 C 672.60 234.62 673.16 244.00 667.85 246.46 C 673.37 248.82 669.23 255.95 672.71 259.75 C 671.15 259.74 669.59 259.75 668.05 259.78 C 667.34 256.32 667.89 252.69 666.62 249.34 C 662.63 247.57 658.19 248.45 653.98 248.25 C 653.78 252.07 653.92 255.90 653.85 259.72 C 652.64 259.74 651.43 259.76 650.23 259.79 C 650.28 250.82 650.24 241.85 650.25 232.88 M 653.88 236.01 C 653.87 239.04 653.87 242.09 653.87 245.13 C 657.75 244.92 661.85 245.66 665.58 244.47 C 668.43 243.10 667.69 239.61 666.92 237.19 C 662.94 235.03 658.20 236.36 653.88 236.01 Z" />
<path fill="#111810" opacity="1.00" d=" M 687.58 233.02 C 692.06 232.83 696.55 232.77 701.04 232.97 C 703.47 233.30 706.67 233.64 707.80 236.21 C 709.73 239.51 708.89 244.24 705.56 246.32 C 710.20 249.42 706.84 255.80 710.05 259.74 C 708.49 259.71 706.94 259.69 705.40 259.70 C 704.46 256.03 706.11 251.15 702.58 248.60 C 698.86 247.85 695.04 248.35 691.28 248.27 C 691.18 251.91 691.32 255.55 691.18 259.19 L 690.96 259.82 C 689.84 259.79 688.72 259.75 687.62 259.71 C 687.62 253.14 687.60 246.58 687.63 240.02 C 687.64 237.69 687.62 235.35 687.58 233.02 M 691.27 236.00 C 691.23 239.04 691.23 242.09 691.27 245.14 C 695.55 244.94 700.06 245.78 704.12 243.97 C 705.37 241.55 705.75 237.61 702.67 236.44 C 698.96 235.51 695.05 236.22 691.27 236.00 Z" />
<path fill="#111810" opacity="1.00" d=" M 714.24 232.92 C 715.44 232.91 716.65 232.89 717.87 232.87 C 718.04 239.26 717.54 245.69 718.12 252.05 C 718.92 258.71 730.08 259.01 731.41 252.53 C 732.16 246.02 731.55 239.43 731.77 232.89 C 732.67 232.89 734.46 232.91 735.36 232.92 C 735.21 239.62 735.73 246.35 735.06 253.02 C 734.01 258.87 727.25 261.28 721.99 260.17 C 717.50 259.73 714.26 255.39 714.27 251.04 C 714.20 245.00 714.29 238.96 714.24 232.92 Z" />
<path fill="#111810" opacity="1.00" d=" M 741.13 232.87 C 742.33 232.88 743.53 232.89 744.75 232.89 C 744.72 240.71 744.81 248.53 744.69 256.35 C 749.21 256.71 753.75 256.39 758.29 256.52 C 758.32 257.56 758.37 258.60 758.44 259.65 C 752.68 259.86 746.92 259.70 741.16 259.74 C 741.09 250.78 741.14 241.83 741.13 232.87 Z" />
<path fill="#111810" opacity="1.00" d=" M 762.25 232.89 C 768.75 232.86 775.25 232.90 781.75 232.86 C 781.74 233.66 781.74 235.25 781.73 236.05 C 776.48 236.20 771.23 236.08 765.98 236.12 C 765.86 238.87 765.83 241.63 765.85 244.38 C 770.76 244.39 775.68 244.36 780.59 244.39 C 780.56 245.17 780.48 246.72 780.44 247.50 C 775.65 247.47 770.86 247.57 766.08 247.42 C 765.72 250.44 765.90 253.48 765.85 256.51 C 771.20 256.49 776.56 256.55 781.92 256.46 C 781.93 257.56 781.96 258.66 781.99 259.77 C 775.40 259.74 768.82 259.73 762.23 259.77 C 762.28 250.81 762.24 241.85 762.25 232.89 Z" />
<path fill="#111810" opacity="1.00" d=" M 552.00 255.77 C 553.29 255.76 554.59 255.75 555.89 255.74 C 555.93 259.06 556.36 264.60 551.89 265.16 C 552.11 263.17 553.93 261.85 554.13 259.82 C 553.60 259.80 552.54 259.74 552.01 259.72 C 552.00 258.40 552.00 257.08 552.00 255.77 Z" />
</g>
</svg>
