<?xml version="1.0" encoding="UTF-8" ?>
<!DOCTYPE svg PUBLIC "-//W3C//DTD SVG 1.1//EN" "http://www.w3.org/Graphics/SVG/1.1/DTD/svg11.dtd">
<svg width="553pt" height="635pt" viewBox="0 0 553 635" version="1.1" xmlns="http://www.w3.org/2000/svg">
<g id="#ffffffff">
<path fill="#ffffff" opacity="1.00" d=" M 165.16 26.14 C 169.00 24.51 173.25 25.09 177.31 25.00 C 256.23 25.01 335.15 25.00 414.07 25.00 C 420.18 24.97 426.09 28.74 428.62 34.31 C 430.46 37.92 430.16 42.07 430.15 46.00 C 430.14 174.98 430.14 303.97 430.12 432.95 C 430.35 441.13 423.49 448.44 415.41 449.12 C 333.94 449.19 252.47 449.11 171.01 449.13 C 162.40 449.30 154.73 441.58 154.95 432.98 C 154.95 302.31 154.93 171.64 154.94 40.98 C 154.93 34.56 159.17 28.42 165.16 26.14 M 269.04 60.00 C 259.12 62.07 249.79 66.27 240.81 70.86 C 222.75 80.80 208.19 96.48 198.78 114.73 C 190.82 130.07 187.15 147.46 187.22 164.70 C 253.97 214.73 320.71 264.77 387.54 314.72 C 386.64 332.83 381.27 350.90 370.86 365.85 C 364.77 373.95 358.32 382.02 350.01 387.96 C 337.69 397.25 323.10 403.52 307.92 406.17 C 283.16 410.25 256.81 404.28 236.55 389.42 C 229.26 384.14 222.90 377.64 217.20 370.71 C 203.99 354.28 197.28 333.20 196.94 312.24 C 193.66 312.19 190.37 312.39 187.11 312.12 C 187.49 321.87 188.67 331.61 191.40 341.02 C 201.12 376.52 231.21 405.51 267.04 413.96 C 289.51 419.89 313.94 417.49 335.08 407.99 C 354.74 399.15 371.74 384.26 382.53 365.55 C 390.83 352.12 395.28 336.62 396.85 320.99 C 397.69 298.03 397.09 275.03 397.21 252.05 C 335.39 205.22 273.27 158.76 211.46 111.88 C 215.10 107.39 218.12 102.40 222.30 98.36 C 234.30 84.67 250.63 75.28 268.01 70.18 C 276.56 68.34 285.27 67.13 294.02 67.08 C 316.06 67.58 338.12 75.70 354.54 90.50 C 375.31 108.15 387.40 135.17 387.47 162.36 C 390.64 162.11 393.82 162.34 397.00 162.22 C 396.95 136.83 387.56 111.39 370.38 92.60 C 355.91 75.89 335.72 64.51 314.21 59.74 C 299.34 56.80 283.86 56.83 269.04 60.00 Z" />
<path fill="#ffffff" opacity="1.00" d=" M 201.62 133.44 C 202.74 128.90 205.10 124.82 206.67 120.43 C 266.97 165.81 327.14 211.36 387.49 256.64 C 387.67 272.16 387.17 287.71 387.75 303.20 C 387.41 302.82 386.75 302.04 386.42 301.65 C 323.22 254.43 260.18 206.98 196.97 159.79 C 197.86 150.92 198.62 141.91 201.62 133.44 Z" />
<path fill="#ffffff" opacity="1.00" d=" M 111.50 491.35 C 113.62 485.62 119.72 482.44 125.49 481.69 C 134.44 480.62 143.04 484.84 149.17 491.14 C 147.24 494.01 144.23 496.27 141.83 498.84 C 138.22 494.34 133.10 490.34 126.99 490.90 C 124.95 491.53 122.25 492.65 122.02 495.08 C 121.14 498.72 124.91 501.16 127.87 502.18 C 134.58 504.47 142.26 506.33 146.59 512.46 C 149.08 515.62 149.08 519.84 148.43 523.63 C 146.87 529.74 140.92 533.54 134.95 534.39 C 125.14 536.60 114.49 532.96 108.17 525.15 C 110.68 522.53 113.26 519.98 115.85 517.45 C 119.67 524.32 129.58 528.56 136.38 523.36 C 138.99 520.34 137.14 515.71 133.71 514.30 C 128.53 512.02 122.83 510.96 118.01 507.85 C 112.26 504.82 109.09 497.52 111.50 491.35 Z" />
<path fill="#ffffff" opacity="1.00" d=" M 150.15 482.16 C 163.98 482.04 177.80 482.23 191.63 482.06 C 191.62 485.16 191.65 488.27 191.59 491.38 C 186.57 491.55 181.45 491.03 176.49 491.62 C 176.50 504.41 176.49 517.20 176.49 529.99 C 176.32 531.41 176.87 533.01 176.21 534.35 C 172.54 534.34 168.85 534.44 165.21 534.32 C 165.39 520.03 165.07 505.74 165.37 491.46 C 160.30 491.25 155.20 491.41 150.13 491.39 C 150.14 488.31 150.09 485.23 150.15 482.16 Z" />
<path fill="#ffffff" opacity="1.00" d=" M 207.17 482.26 C 209.70 482.02 212.26 482.06 214.80 482.23 C 221.29 499.76 229.35 516.84 235.68 534.36 C 231.76 534.36 227.84 534.41 223.93 534.34 C 222.51 531.01 221.22 527.63 219.74 524.33 C 213.92 524.41 208.10 524.37 202.29 524.35 C 200.22 527.30 199.35 531.01 197.93 534.33 C 193.85 534.42 189.77 534.33 185.70 534.38 C 192.98 517.06 200.12 499.67 207.17 482.26 M 210.75 500.23 C 209.10 505.20 207.38 510.13 205.45 514.99 C 208.99 514.92 212.54 515.18 216.07 514.85 C 214.35 509.98 212.96 504.92 210.75 500.23 Z" />
<path fill="#ffffff" opacity="1.00" d=" M 239.10 491.01 C 248.92 478.60 270.43 478.44 280.13 490.99 C 277.74 493.28 275.55 495.83 273.02 497.94 L 272.31 497.75 C 269.42 492.89 263.50 490.33 257.95 490.93 C 250.17 491.86 244.40 499.32 244.05 506.93 C 243.26 515.32 249.07 524.64 257.87 525.51 C 263.84 526.71 269.06 522.74 272.76 518.49 C 275.27 520.94 278.07 523.30 280.14 526.08 C 276.25 529.42 272.17 532.88 267.00 533.96 C 254.04 537.83 238.87 530.50 234.54 517.56 C 231.21 508.72 232.93 498.20 239.10 491.01 Z" />
<path fill="#ffffff" opacity="1.00" d=" M 287.74 482.15 C 291.43 482.08 295.12 482.17 298.81 482.09 C 298.67 488.73 298.81 495.38 298.72 502.02 C 306.54 495.47 314.22 488.77 322.02 482.20 C 327.42 482.01 332.84 482.19 338.26 482.11 C 329.63 489.46 320.75 496.59 312.37 504.17 C 320.03 514.55 329.59 523.86 336.93 534.43 C 332.06 534.21 327.14 534.62 322.29 534.22 C 316.08 526.54 309.94 518.80 303.67 511.17 C 302.08 512.54 300.38 513.78 298.81 515.18 C 298.66 521.52 298.79 527.88 298.75 534.22 C 295.08 534.55 291.35 534.32 287.65 534.34 C 287.66 516.94 287.48 499.53 287.74 482.15 Z" />
<path fill="#ffffff" opacity="1.00" d=" M 360.28 482.18 C 364.34 482.08 368.40 482.10 372.46 482.16 C 378.30 493.93 384.41 505.56 390.26 517.33 C 394.94 509.23 398.95 500.53 403.35 492.18 C 405.13 488.93 406.67 485.56 408.39 482.30 C 416.91 481.94 425.48 482.22 434.02 482.16 C 438.86 488.66 442.94 495.93 447.65 502.63 C 447.85 502.65 448.24 502.71 448.44 502.74 C 452.90 495.81 457.14 488.64 462.18 482.15 C 466.48 482.09 470.78 482.15 475.08 482.12 C 473.57 484.74 471.67 487.12 470.08 489.70 C 464.59 497.75 459.00 505.74 453.61 513.86 C 453.59 520.70 453.71 527.55 453.57 534.39 C 449.92 534.38 446.28 534.34 442.64 534.41 C 442.01 527.66 442.56 520.68 442.37 513.84 C 438.82 508.10 434.74 502.65 430.99 497.01 C 427.47 492.18 424.58 486.87 420.68 482.33 C 420.41 499.68 420.93 517.11 420.41 534.41 C 416.78 534.34 413.14 534.39 409.51 534.38 C 409.48 524.19 409.53 514.00 409.49 503.81 C 404.97 512.57 400.51 521.38 395.94 530.12 C 395.22 531.52 394.56 532.95 393.83 534.36 C 391.56 534.41 389.28 534.42 387.02 534.34 C 381.90 524.13 376.62 514.01 371.38 503.86 C 371.36 514.02 371.43 524.18 371.35 534.34 C 367.67 534.47 363.99 534.26 360.32 534.48 C 360.18 517.05 360.25 499.61 360.28 482.18 Z" />
<path fill="#ffffff" opacity="1.00" d=" M 227.07 551.58 C 238.64 549.89 250.97 554.35 258.72 563.09 C 265.80 570.83 269.00 581.77 267.53 592.11 C 265.76 608.90 250.63 622.70 233.81 623.23 C 224.44 623.72 214.68 620.72 207.68 614.34 C 197.94 606.17 193.80 592.49 196.13 580.11 C 198.90 565.26 211.97 552.97 227.07 551.58 M 226.43 564.52 C 214.71 567.67 208.24 581.59 211.30 592.94 C 212.66 599.91 217.54 606.13 223.91 609.21 C 228.34 611.05 233.45 611.40 237.96 609.71 C 249.79 605.96 255.28 591.33 251.84 579.99 C 249.18 569.18 237.44 560.97 226.43 564.52 Z" />
<path fill="#ffffff" opacity="1.00" d=" M 108.03 551.90 C 113.36 551.85 118.70 551.84 124.04 551.90 C 131.23 564.77 137.49 578.35 144.49 591.40 C 145.87 594.15 147.45 596.81 148.45 599.73 C 148.68 599.42 149.14 598.81 149.37 598.50 C 157.08 583.41 164.75 568.29 172.50 553.22 C 172.69 552.90 173.08 552.24 173.27 551.92 C 178.68 551.89 184.09 551.79 189.49 551.98 C 189.51 575.48 189.52 598.97 189.48 622.47 C 184.49 622.52 179.51 622.52 174.52 622.48 C 174.46 608.80 174.53 595.12 174.49 581.45 C 167.19 594.99 160.56 608.93 153.28 622.50 C 150.21 622.40 147.11 622.73 144.07 622.30 C 137.13 608.66 130.09 595.07 123.15 581.43 C 123.11 595.02 123.12 608.60 123.14 622.19 C 118.32 622.95 113.08 622.24 108.10 622.52 C 107.89 598.99 108.03 575.44 108.03 551.90 Z" />
<path fill="#ffffff" opacity="1.00" d=" M 277.02 551.89 C 282.37 551.88 287.72 551.82 293.07 551.92 C 302.25 565.44 311.29 579.06 320.52 592.54 C 321.93 594.24 322.69 596.43 324.45 597.85 C 324.28 582.60 324.43 567.35 324.37 552.10 C 329.28 551.59 334.45 551.95 339.46 551.94 C 339.54 575.45 339.49 598.96 339.48 622.47 C 334.23 622.55 328.98 622.43 323.73 622.53 C 312.77 607.51 302.94 591.52 292.16 576.31 C 292.08 591.59 292.11 606.88 292.14 622.16 C 287.42 622.99 282.15 622.20 277.23 622.54 C 276.71 599.07 277.12 575.43 277.02 551.89 Z" />
<path fill="#ffffff" opacity="1.00" d=" M 351.78 551.90 C 368.25 551.86 384.73 551.81 401.21 551.92 C 401.04 556.06 401.23 560.20 401.09 564.34 C 389.77 564.42 378.44 564.37 367.12 564.37 C 366.51 569.29 367.10 574.37 366.83 579.35 C 376.04 579.98 385.55 579.45 394.88 579.60 C 394.86 583.76 394.90 587.92 394.85 592.08 C 385.61 592.48 376.31 592.13 367.05 592.26 C 366.65 598.14 366.96 604.07 366.89 609.98 C 378.89 610.05 390.88 609.94 402.87 610.03 C 402.88 614.14 402.88 618.26 402.87 622.38 C 385.84 622.63 368.79 622.46 351.76 622.46 C 351.76 598.94 351.71 575.42 351.78 551.90 Z" />
<path fill="#ffffff" opacity="1.00" d=" M 401.69 551.92 C 407.76 551.80 413.84 551.87 419.91 551.88 C 425.87 561.37 432.02 570.74 438.27 580.05 L 438.74 580.21 C 444.60 570.61 451.07 561.38 457.16 551.92 C 463.12 551.83 469.08 551.85 475.05 551.91 C 465.77 566.19 455.84 580.08 446.34 594.23 C 445.55 600.03 446.22 606.07 446.00 611.96 C 445.93 615.48 446.15 619.01 445.90 622.53 C 440.98 622.48 436.06 622.51 431.14 622.51 C 430.36 613.25 431.34 603.64 430.65 594.32 C 420.98 580.20 411.35 566.05 401.69 551.92 Z" />
</g>
</svg>
