<?xml version="1.0" encoding="UTF-8" ?>
<!DOCTYPE svg PUBLIC "-//W3C//DTD SVG 1.1//EN" "http://www.w3.org/Graphics/SVG/1.1/DTD/svg11.dtd">
<svg width="553pt" height="635pt" viewBox="0 0 553 635" version="1.1" xmlns="http://www.w3.org/2000/svg">
<g id="#ffffffff">
<path fill="#ffffff" opacity="1.00" d=" M 165.16 26.14 C 169.00 24.51 173.25 25.09 177.31 25.00 C 256.23 25.01 335.15 25.00 414.07 25.00 C 420.18 24.97 426.09 28.74 428.62 34.31 C 430.46 37.92 430.16 42.07 430.15 46.00 C 430.14 174.98 430.14 303.97 430.12 432.95 C 430.35 441.13 423.49 448.44 415.41 449.12 C 333.94 449.19 252.47 449.11 171.01 449.13 C 162.40 449.30 154.73 441.58 154.95 432.98 C 154.95 302.31 154.93 171.64 154.94 40.98 C 154.93 34.56 159.17 28.42 165.16 26.14 M 269.04 60.00 C 259.12 62.07 249.79 66.27 240.81 70.86 C 222.75 80.80 208.19 96.48 198.78 114.73 C 190.82 130.07 187.15 147.46 187.22 164.70 C 253.97 214.73 320.71 264.77 387.54 314.72 C 386.64 332.83 381.27 350.90 370.86 365.85 C 364.77 373.95 358.32 382.02 350.01 387.96 C 337.69 397.25 323.10 403.52 307.92 406.17 C 283.16 410.25 256.81 404.28 236.55 389.42 C 229.26 384.14 222.90 377.64 217.20 370.71 C 203.99 354.28 197.28 333.20 196.94 312.24 C 193.66 312.19 190.37 312.39 187.11 312.12 C 187.49 321.87 188.67 331.61 191.40 341.02 C 201.12 376.52 231.21 405.51 267.04 413.96 C 289.51 419.89 313.94 417.49 335.08 407.99 C 354.74 399.15 371.74 384.26 382.53 365.55 C 390.83 352.12 395.28 336.62 396.85 320.99 C 397.69 298.03 397.09 275.03 397.21 252.05 C 335.39 205.22 273.27 158.76 211.46 111.88 C 215.10 107.39 218.12 102.40 222.30 98.36 C 234.30 84.67 250.63 75.28 268.01 70.18 C 276.56 68.34 285.27 67.13 294.02 67.08 C 316.06 67.58 338.12 75.70 354.54 90.50 C 375.31 108.15 387.40 135.17 387.47 162.36 C 390.64 162.11 393.82 162.34 397.00 162.22 C 396.95 136.83 387.56 111.39 370.38 92.60 C 355.91 75.89 335.72 64.51 314.21 59.74 C 299.34 56.80 283.86 56.83 269.04 60.00 Z" />
<path fill="#ffffff" opacity="1.00" d=" M 201.62 133.44 C 202.74 128.90 205.10 124.82 206.67 120.43 C 266.97 165.81 327.14 211.36 387.49 256.64 C 387.67 272.16 387.17 287.71 387.75 303.20 C 387.41 302.82 386.75 302.04 386.42 301.65 C 323.22 254.43 260.18 206.98 196.97 159.79 C 197.86 150.92 198.62 141.91 201.62 133.44 Z" />
</g>
</svg>
